<?xml version="1.0" encoding="UTF-8" standalone="no"?>
<!-- Created with Inkscape (http://www.inkscape.org/) -->

<svg
   width="631.83496"
   height="121.81213"
   viewBox="0 0 167.173 32.229461"
   version="1.1"
   id="svg5"
   inkscape:version="1.3 (0e150ed, 2023-07-21)"
   sodipodi:docname="source-inkscape.svg"
   inkscape:export-filename="logo.svg"
   inkscape:export-xdpi="96"
   inkscape:export-ydpi="96"
   xmlns:inkscape="http://www.inkscape.org/namespaces/inkscape"
   xmlns:sodipodi="http://sodipodi.sourceforge.net/DTD/sodipodi-0.dtd"
   xmlns="http://www.w3.org/2000/svg"
   xmlns:svg="http://www.w3.org/2000/svg">
  <sodipodi:namedview
     id="namedview7"
     pagecolor="#ffffff"
     bordercolor="#000000"
     borderopacity="0.25"
     inkscape:showpageshadow="2"
     inkscape:pageopacity="0.0"
     inkscape:pagecheckerboard="0"
     inkscape:deskcolor="#d1d1d1"
     inkscape:document-units="px"
     showgrid="false"
     inkscape:zoom="1.52"
     inkscape:cx="311.51316"
     inkscape:cy="80.263158"
     inkscape:window-width="1680"
     inkscape:window-height="997"
     inkscape:window-x="640"
     inkscape:window-y="1465"
     inkscape:window-maximized="1"
     inkscape:current-layer="layer1"
     showguides="false">
    <sodipodi:guide
       position="-2.5214107e-06,28.293557"
       orientation="0,537.4953"
       id="guide1"
       inkscape:locked="false" />
    <sodipodi:guide
       position="142.2123,28.293557"
       orientation="121.8108,0"
       id="guide2"
       inkscape:locked="false" />
    <sodipodi:guide
       position="142.2123,-3.9355516"
       orientation="0,-537.4953"
       id="guide3"
       inkscape:locked="false" />
    <sodipodi:guide
       position="-2.5214107e-06,-3.9355516"
       orientation="-121.8108,0"
       id="guide4"
       inkscape:locked="false" />
    <sodipodi:guide
       position="-2.5214107e-06,28.293557"
       orientation="0,537.4953"
       id="guide5"
       inkscape:locked="false" />
    <sodipodi:guide
       position="142.2123,28.293557"
       orientation="121.8108,0"
       id="guide6"
       inkscape:locked="false" />
    <sodipodi:guide
       position="142.2123,-3.9355516"
       orientation="0,-537.4953"
       id="guide7"
       inkscape:locked="false" />
    <sodipodi:guide
       position="-2.5214107e-06,-3.9355516"
       orientation="-121.8108,0"
       id="guide8"
       inkscape:locked="false" />
    <sodipodi:guide
       position="-2.5214107e-06,28.293557"
       orientation="0,537.4953"
       id="guide9"
       inkscape:locked="false" />
    <sodipodi:guide
       position="142.2123,28.293557"
       orientation="121.8108,0"
       id="guide10"
       inkscape:locked="false" />
    <sodipodi:guide
       position="142.2123,-3.9355516"
       orientation="0,-537.4953"
       id="guide11"
       inkscape:locked="false" />
    <sodipodi:guide
       position="-2.5214107e-06,-3.9355516"
       orientation="-121.8108,0"
       id="guide12"
       inkscape:locked="false" />
  </sodipodi:namedview>
  <defs
     id="defs2" />
  <g
     inkscape:label="gitplay-logo"
     inkscape:groupmode="layer"
     id="layer1"
     transform="translate(21.040179,-0.93700983)">
    <g
       id="g12"
       inkscape:label="play-strokes"
       class="logo-play-strokes">
      <path
         id="rect12"
         style="opacity:0.6;fill:#666666;fill-opacity:1;stroke-width:0.264583"
         d="m 122.75225,8.9616065 23.38058,-8.711e-4 -1.47559,2.5222856 h -23.38369 z"
         sodipodi:nodetypes="ccccc" />
      <path
         id="rect12-0"
         style="opacity:0.6;fill:#666666;fill-opacity:1;stroke-width:0.264583"
         d="m 117.55606,17.82707 23.38058,-8.71e-4 -1.47559,2.522286 h -23.38369 z"
         sodipodi:nodetypes="ccccc" />
      <path
         id="rect12-8"
         style="opacity:0.6;fill:#666666;fill-opacity:1;stroke-width:0.264583"
         d="m 120.15416,13.394338 23.38058,-8.71e-4 -1.47559,2.522286 h -23.38369 z"
         sodipodi:nodetypes="ccccc" />
      <path
         id="rect12-0-0"
         style="opacity:0.6;fill:#666666;fill-opacity:1;stroke-width:0.264583"
         d="m 114.95797,22.259802 23.38058,-8.71e-4 -1.47559,2.522286 h -23.38369 z"
         sodipodi:nodetypes="ccccc" />
    </g>
    <path
       style="font-style:italic;font-weight:bold;font-size:30.6917px;font-family:Sublima;-inkscape-font-specification:'Sublima Bold';letter-spacing:-0.529167px;fill:#666666;stroke-width:0.339455"
       d="m 56.580648,31.016219 h 5.185219 l 1.513604,-7.133423 c 0.82424,0.794268 2.098066,1.378729 3.671615,1.378729 5.395025,0 9.291433,-4.256076 9.291433,-9.845921 0,-4.450896 -2.457734,-6.9386025 -6.039432,-6.9386025 -1.363742,0 -3.087153,0.4196131 -4.360979,1.4536597 l 0.209807,-0.9741018 h -4.780592 z m 7.717884,-12.708282 c 0,-2.742472 1.663466,-5.949514 4.301034,-5.949514 1.558563,0 2.457734,1.168922 2.457734,3.057181 0,2.697512 -1.64848,5.9645 -4.316021,5.9645 -1.558562,0 -2.442747,-1.183908 -2.442747,-3.072167 z m 12.448866,6.47403 h 5.185218 L 86.623291,2.7223078 h -5.185219 z m 13.872553,0.449586 c 1.948203,0 3.356905,-0.689365 4.615744,-1.693439 0.02997,0.209807 0.04496,0.419613 0.08992,0.614434 0.04496,0.224792 0.08992,0.419613 0.164848,0.629419 h 5.020367 c -0.19482,-0.614433 -0.35967,-1.288811 -0.35967,-1.978176 0,-0.31471 0.045,-0.644406 0.10491,-0.929143 l 1.57354,-7.493091 c 0.0899,-0.464572 0.19483,-0.959116 0.19483,-1.318784 0,-2.622582 -2.817404,-4.6157438 -6.713811,-4.6157438 -4.43591,0 -7.463119,2.0980658 -8.137497,5.3350808 l 4.990399,0.04496 c 0.224792,-1.064019 1.318784,-1.753383 2.757457,-1.753383 1.288812,0 2.068093,0.599447 2.068093,1.45366 0,0.119889 -0.01499,0.224792 -0.04496,0.344682 -0.284738,1.01906 -1.948204,1.273825 -3.92638,1.52859 -4.061255,0.539503 -8.062566,1.483632 -8.062566,5.544888 0,2.307872 2.352831,4.286048 5.664777,4.286048 z M 90.020504,20.25614 c 0,-1.723411 2.592609,-2.023134 4.51084,-2.217955 0.659392,-0.05994 1.108978,-0.134875 1.573549,-0.239778 l -0.209806,0.959115 c -0.374655,1.723411 -1.873273,2.847375 -3.641642,2.847375 -1.45366,0 -2.232941,-0.419613 -2.232941,-1.348757 z m 11.205016,10.760079 h 3.44682 c 3.28197,0 4.70566,-1.948204 6.33915,-4.720647 L 121.17212,8.9565594 h -5.43998 l -5.43998,9.3963356 -1.31879,-9.3963356 h -4.97541 l 2.62258,16.1700896 -0.67438,0.94413 c -0.32969,0.494544 -0.71933,0.929143 -1.60352,0.929143 h -2.24792 z"
       id="text120-2-2"
       class="logo-play"
       inkscape:label="play"
       aria-label="play" />
    <g
       id="g1"
       inkscape:label="git"
       class="logo-git">
      <path
         style="display:inline;fill:#000000;fill-opacity:1;fill-rule:nonzero;stroke:none"
         d="m 218.371,65.21 c -3.742,1.825 -9.223,3.481 -14.187,3.481 -10.356,0 -14.27,-4.175 -14.27,-14.015 V 31.879 c 0,-0.524 0,-0.871 -0.7,-0.871 h -6.093 v -7.746 c 7.664,-0.871 10.707,-4.703 11.664,-14.188 h 8.27 v 12.36 c 0,0.609 0,0.87 0.695,0.87 h 12.27 v 8.704 h -12.965 v 20.797 c 0,5.136 1.218,7.136 5.918,7.136 2.437,0 4.96,-0.609 7.047,-1.39 l 2.351,7.66"
         id="path4318"
         transform="matrix(0.35277775,0,0,0.35277775,-21.111071,0.65866819)"
         inkscape:label="t" />
      <path
         style="fill:#000000;fill-opacity:1;fill-rule:nonzero;stroke:none"
         d="m 170.379,16.281 c -4.961,0 -7.832,-2.87 -7.832,-7.836 0,-4.957 2.871,-7.656 7.832,-7.656 5.05,0 7.922,2.7 7.922,7.656 0,4.965 -2.871,7.836 -7.922,7.836 z M 159.152,68.586 V 61.71 l 4.438,-0.606 c 1.219,-0.175 1.394,-0.437 1.394,-1.746 V 33.773 c 0,-0.953 -0.261,-1.566 -1.132,-1.824 l -4.7,-1.656 0.957,-7.047 h 18.016 V 59.36 c 0,1.399 0.086,1.57 1.395,1.746 l 4.437,0.606 v 6.875 h -24.805"
         id="path4314"
         transform="matrix(0.35277775,0,0,0.35277775,-21.111071,0.65866819)"
         inkscape:label="i" />
      <path
         style="fill:#000000;fill-opacity:1;fill-rule:nonzero;stroke:none;stroke-width:0.352778"
         d="m 25.057308,11.8897 c -1.688042,0 -2.946047,0.829734 -2.946047,2.825045 0,1.503186 0.827969,2.547761 2.85503,2.547761 1.718381,0 2.885722,-1.011414 2.885722,-2.60985 0,-1.810808 -1.044575,-2.762956 -2.794705,-2.762956 z m -3.376083,14.093472 c -0.399698,0.490361 -0.797984,1.012472 -0.797984,1.627011 0,1.227667 1.564217,1.595966 3.713692,1.595966 1.78188,0 4.207227,-0.124177 4.207227,-1.779058 0,-0.985308 -1.166989,-1.045986 -2.6416,-1.138414 z m 9.087907,-14.001044 c 0.551392,0.706967 1.135945,1.689453 1.135945,3.101975 0,3.406422 -2.670881,5.403144 -6.539089,5.403144 -0.983897,0 -1.873955,-0.122767 -2.426758,-0.27693 l -1.012472,1.627363 3.007783,0.183445 c 5.31248,0.338667 8.443383,0.493183 8.443383,4.574822 0,3.5306 -3.100564,5.526263 -8.443383,5.526263 -5.55625,0 -7.675386,-1.412522 -7.675386,-3.838222 0,-1.38183 0.614539,-2.116666 1.689453,-3.131961 -1.014236,-0.427213 -1.350433,-1.194858 -1.350433,-2.024591 0,-0.675217 0.336197,-1.289756 0.890058,-1.873956 0.55245,-0.582788 1.165931,-1.16593 1.903236,-1.841147 -1.503539,-0.737305 -2.640541,-2.33433 -2.640541,-4.606572 0,-3.530599 2.332919,-5.9548877 7.03086,-5.9548877 1.320095,0 2.118078,0.121355 2.825045,0.307622 h 5.987344 v 2.6084387 l -2.824692,0.215194"
         id="path4312"
         inkscape:label="g" />
    </g>
    <path
       style="display:inline;fill:#f03c2e;fill-opacity:1;stroke-width:0.0423333"
       d="m -5.3902259,33.109835 c -0.634195,-0.137784 -0.133021,0.33468 -8.0213671,-7.561853 -4.118409,-4.122684 -7.273096,-7.313098 -7.334054,-7.417115 -0.284035,-0.484668 -0.372431,-1.135657 -0.222186,-1.636267 0.160651,-0.535282 0.125656,-0.497812 5.261889,-5.633903 l 4.885413,-4.8852724 0.574699,0.5711707 c 0.3160846,0.314144 1.1267621,1.13652 1.8015051,1.827502 l 1.226807,1.256329 -0.07552,0.246504 c -0.113797,0.3714307 -0.10137,1.0906187 0.02511,1.4530027 0.205447,0.588643 0.647946,1.127631 1.141918,1.390916 l 0.259006,0.138049 v 4.396143 4.396143 l -0.243417,0.13734 c -0.358989,0.202546 -0.780483,0.629511 -0.961493,0.973968 -0.203367,0.387009 -0.273846,0.627576 -0.303106,1.034608 -0.08218,1.143154 0.666858,2.212063 1.783183,2.544668 0.372845,0.111088 1.013677,0.104003 1.397,-0.01544 1.250238,-0.389587 1.979742,-1.659455 1.688621,-2.939423 l -0.06821,-0.299913 1.7509651,-1.750384 1.75096194,-1.750386 0.21166696,0.06636 c 0.264787,0.08302 0.897051,0.09398 1.2065,0.02091 0.878191,-0.207348 1.635069,-0.95957 1.839915,-1.828596 0.307743,-1.305586 -0.491134,-2.643584 -1.778639,-2.978936 -0.306118,-0.07973 -0.900324,-0.08386 -1.191726,-0.0083 l -0.21756096,0.05643 -1.77924094,-1.781518 -1.7792411,-1.781517 0.06075,-0.254 c 0.229722,-0.960535 -0.210341,-2.0507477 -1.050216,-2.6018087 -0.528978,-0.347076 -1.324424,-0.488013 -1.930116,-0.341976 l -0.227233,0.05479 -1.837094,-1.8363348 -1.837095,-1.8363344 1.577494,-1.574246 c 1.49126,-1.488188 1.594852,-1.582444 1.894996,-1.724211 0.577252,-0.272655 1.170942,-0.27818 1.756113,-0.01634 0.290645,0.13005 0.452668,0.288277 7.508968,7.3330262 4.770644,4.7628347 7.2681489,7.2854927 7.3780459,7.4523497 0.25178,0.382286 0.348456,0.749717 0.321908,1.223461 -0.0263,0.469266 -0.134615,0.777975 -0.391887,1.116918 -0.101743,0.134042 -3.3817849,3.437609 -7.2889849,7.341261 -7.801544,7.794463 -7.25664,7.283867 -7.924332,7.425393 -0.340207,0.07211 -0.496784,0.07151 -0.840711,-0.0032 z m 1.597547,-15.832203 V 13.04457 l 1.636493,1.636493 1.63649507,1.636494 -0.07962,0.268438 c -0.11058197,0.372822 -0.10562397,1.065078 0.01,1.398006 l 0.08356,0.240567 -1.64346807,1.643062 -1.643467,1.643063 z"
       id="path4537"
       inkscape:label="git-symbol"
       class="logo-git-symbol" />
  </g>
</svg>
