<?xml version="1.0" encoding="UTF-8" standalone="no"?>
<!-- Created with Inkscape (http://www.inkscape.org/) -->

<svg
   width="32.100124mm"
   height="32.138226mm"
   viewBox="0 0 32.100124 32.138226"
   version="1.1"
   id="svg1"
   inkscape:export-filename="logo-symbol.png"
   inkscape:export-xdpi="96"
   inkscape:export-ydpi="96"
   xmlns:inkscape="http://www.inkscape.org/namespaces/inkscape"
   xmlns:sodipodi="http://sodipodi.sourceforge.net/DTD/sodipodi-0.dtd"
   xmlns="http://www.w3.org/2000/svg"
   xmlns:svg="http://www.w3.org/2000/svg">
  <sodipodi:namedview
     id="namedview1"
     pagecolor="#ffffff"
     bordercolor="#000000"
     borderopacity="0.25"
     inkscape:showpageshadow="2"
     inkscape:pageopacity="0.0"
     inkscape:pagecheckerboard="0"
     inkscape:deskcolor="#d1d1d1"
     inkscape:document-units="mm"
     showgrid="false"
     inkscape:zoom="0.69842873"
     inkscape:cx="269.89153"
     inkscape:cy="357.94633"
     inkscape:window-width="1680"
     inkscape:window-height="997"
     inkscape:window-x="640"
     inkscape:window-y="1465"
     inkscape:window-maximized="1"
     inkscape:current-layer="layer1" />
  <defs
     id="defs1" />
  <g
     inkscape:label="Layer 1"
     inkscape:groupmode="layer"
     id="layer1"
     transform="translate(-33.866667,-53.975)">
    <path
       style="display:inline;fill:#f03c2e;fill-opacity:1;stroke-width:0.0423333"
       d="m 49.51662,86.05659 c -0.634195,-0.137784 -0.133021,0.33468 -8.021367,-7.561853 -4.118409,-4.122684 -7.273096,-7.313098 -7.334054,-7.417115 -0.284035,-0.484668 -0.372431,-1.135657 -0.222186,-1.636267 0.160651,-0.535282 0.125656,-0.497812 5.261889,-5.633903 l 4.885413,-4.885272 0.574699,0.57117 c 0.316085,0.314144 1.126762,1.13652 1.801505,1.827502 l 1.226807,1.256329 -0.07552,0.246504 c -0.113797,0.371431 -0.10137,1.090619 0.02511,1.453003 0.205447,0.588643 0.647946,1.127631 1.141918,1.390916 l 0.259006,0.138049 v 4.396143 4.396143 l -0.243417,0.13734 c -0.358989,0.202546 -0.780483,0.629511 -0.961493,0.973968 -0.203367,0.387009 -0.273846,0.627576 -0.303106,1.034608 -0.08218,1.143154 0.666858,2.212063 1.783183,2.544668 0.372845,0.111088 1.013677,0.104003 1.397,-0.01544 1.250238,-0.389587 1.979742,-1.659455 1.688621,-2.939423 l -0.06821,-0.299913 1.750965,-1.750384 1.750962,-1.750386 0.211667,0.06636 c 0.264787,0.08302 0.897051,0.09398 1.2065,0.02091 0.878191,-0.207348 1.635069,-0.95957 1.839915,-1.828596 0.307743,-1.305586 -0.491134,-2.643584 -1.778639,-2.978936 -0.306118,-0.07973 -0.900324,-0.08386 -1.191726,-0.0083 l -0.217561,0.05643 -1.779241,-1.781518 -1.779241,-1.781517 0.06075,-0.254 c 0.229722,-0.960535 -0.210341,-2.050748 -1.050216,-2.601809 -0.528978,-0.347076 -1.324424,-0.488013 -1.930116,-0.341976 L 49.199204,61.154815 47.36211,59.31848 45.525015,57.482146 47.102509,55.9079 c 1.49126,-1.488188 1.594852,-1.582444 1.894996,-1.724211 0.577252,-0.272655 1.170942,-0.27818 1.756113,-0.01634 0.290645,0.13005 0.452668,0.288277 7.508968,7.333026 4.770644,4.762835 7.268149,7.285493 7.378046,7.45235 0.25178,0.382286 0.348456,0.749717 0.321908,1.223461 -0.0263,0.469266 -0.134615,0.777975 -0.391887,1.116918 -0.101743,0.134042 -3.381785,3.437609 -7.288985,7.341261 -7.801544,7.794463 -7.25664,7.283867 -7.924332,7.425393 -0.340207,0.07211 -0.496784,0.07151 -0.840711,-0.0032 z m 1.597547,-15.832203 v -4.233062 l 1.636493,1.636493 1.636495,1.636494 -0.07962,0.268438 c -0.110582,0.372822 -0.105624,1.065078 0.01,1.398006 l 0.08356,0.240567 -1.643468,1.643062 -1.643467,1.643063 z"
       id="path4537"
       inkscape:label="git-symbol"
       class="logo-git-symbol" />
  </g>
</svg>
